# xmcd CD database file
#
# Track frame offsets:
#	150
#	116201
#	221670
#
# Disc length: 4595 seconds
#
# Revision: 0
# Processed by: cddbd v1.5.2PL0 Copyright (c) Steve Scherf et al.
# Submitted via: CDex 1.51
#
DISCID=2a11f103
DTITLE=Orin - Creating Money and Abundance
DYEAR=1900
DGENRE=New Age
TTITLE0=Magnetizing Yourself
TTITLE1=Linking With Your Soul and the Guides
TTITLE2=Clearing Beliefs and Old Programs
EXTD=
EXTT0=
EXTT1=
EXTT2=
PLAYORDER=
